<?xml version="1.0" standalone="no"?>
<!DOCTYPE svg PUBLIC "-//W3C//DTD SVG 20010904//EN"
 "http://www.w3.org/TR/2001/REC-SVG-20010904/DTD/svg10.dtd">
<svg version="1.0" xmlns="http://www.w3.org/2000/svg"
 width="512.000000pt" height="512.000000pt" viewBox="0 0 512.000000 512.000000"
 preserveAspectRatio="xMidYMid meet">
<metadata>
Created by potrace 1.14, written by Peter Selinger 2001-2017
</metadata>
<g transform="translate(0.000000,512.000000) scale(0.100000,-0.100000)"
fill="#000000" stroke="none">
<path d="M2999 4806 c-3 -4 -356 -8 -785 -11 -428 -2 -833 -7 -899 -11 -66 -4
-145 -8 -175 -9 -56 -3 -112 -29 -254 -120 -52 -33 -52 -33 -80 -132 -15 -54
-31 -107 -35 -118 -4 -11 -9 -69 -10 -130 -2 -60 -4 -130 -5 -155 -1 -37 9
-66 57 -165 l60 -120 1 -107 c1 -59 5 -110 9 -114 3 -4 2 -14 -3 -24 -5 -10
-7 -20 -4 -22 2 -3 7 -106 9 -229 3 -123 7 -289 10 -369 3 -80 7 -257 10 -395
4 -137 7 -293 9 -345 l2 -95 -89 -178 -89 -178 5 -217 5 -217 44 -105 45 -105
-28 -44 c-28 -43 -28 -48 -25 -157 l4 -113 93 -124 c88 -116 98 -125 146 -142
29 -10 54 -17 57 -17 3 1 26 -7 51 -18 25 -11 46 -19 48 -18 1 0 12 -2 25 -6
17 -6 22 -15 23 -44 1 -63 15 -393 18 -431 1 -15 58 25 135 94 6 6 34 29 62
53 l52 42 88 -36 c49 -20 98 -40 109 -44 11 -5 41 -18 68 -29 32 -14 47 -16
48 -8 1 7 2 93 3 193 2 99 6 185 9 191 4 6 48 11 104 12 54 1 278 4 498 7 220
4 510 7 645 7 224 1 311 -2 620 -20 182 -10 251 -8 320 12 8 2 29 7 45 10 17
2 41 8 55 11 14 3 43 9 65 14 71 13 71 14 70 86 l-1 65 -61 57 c-55 52 -63 65
-92 150 l-31 93 21 47 c11 26 22 55 24 65 9 44 110 212 229 382 20 28 21 44
23 265 1 129 3 235 3 235 4 0 11 810 14 1606 l5 936 -147 145 -147 144 -376
-1 c-206 -1 -381 -5 -389 -10 -7 -5 -11 -4 -7 1 5 9 -162 10 -186 1 -8 -3 -19
-2 -26 2 -7 5 -30 5 -51 1 -22 -4 -41 -3 -42 2 -2 5 -6 7 -9 4z"/>
</g>
</svg>
