<svg version="1.0" xmlns="http://www.w3.org/2000/svg" width="2048.000000pt" height="2048.000000pt" viewBox="0 0 2048.000000 2048.000000" preserveAspectRatio="xMidYMid meet">

<g transform="translate(0.000000,2048.000000) scale(0.100000,-0.100000)" fill="#f4ecff" stroke="none">
<path d="M14810 19213 c-58 -1 -1232 -7 -2610 -13 -1378 -6 -2899 -15 -3380 -20 -481 -5 -1422 -12 -2090 -15 -1071 -5 -1248 -8 -1495 -25 -154 -11 -424 -28 -601 -38 -305 -18 -322 -20 -355 -42 -67 -46 -85 -57 -164 -100 -44 -23 -87 -48 -95 -55 -8 -6 -53 -33 -100 -60 -47 -26 -107 -62 -134 -79 -26 -17 -77 -47 -111 -66 -79 -44 -198 -114 -273 -161 -49 -30 -60 -43 -71 -80 -7 -24 -21 -66 -31 -94 -16 -46 -26 -82 -82 -295 -11 -41 -27 -91 -35 -110 -16 -36 -20 -52 -66 -220 -72 -265 -65 -189 -78 -863 l-11 -617 76 -153 c42 -83 81 -159 86 -167 5 -8 32 -60 59 -115 41 -83 136 -270 222 -435 20 -38 27 -239 49 -1345 6 -280 15 -634 20 -785 6 -151 15 -486 20 -745 6 -258 15 -560 20 -670 6 -110 15 -418 20 -685 5 -267 14 -633 20 -815 11 -387 31 -1330 33 -1625 l2 -205 -348 -695 -347 -695 0 -300 c0 -494 19 -1355 31 -1415 6 -30 29 -91 50 -135 21 -44 59 -134 84 -199 25 -66 50 -125 54 -130 5 -6 30 -65 55 -131 26 -66 60 -148 76 -181 17 -34 30 -70 30 -81 0 -25 -22 -73 -35 -73 -5 -1 -25 -32 -44 -69 -19 -38 -47 -86 -62 -107 -15 -22 -39 -58 -54 -81 l-26 -43 11 -322 c6 -178 15 -381 19 -453 l7 -130 80 -104 c43 -56 102 -133 129 -170 28 -37 91 -121 140 -185 99 -131 177 -233 244 -322 25 -33 73 -93 108 -136 61 -73 66 -77 136 -97 39 -12 92 -30 117 -41 42 -18 84 -32 285 -94 44 -13 112 -36 150 -51 39 -14 115 -39 170 -55 55 -16 123 -39 152 -51 l51 -21 6 -121 c8 -165 24 -617 36 -1042 12 -429 29 -727 41 -740 13 -13 35 2 150 98 100 83 169 140 314 259 50 40 151 124 225 185 74 61 171 141 215 177 48 39 89 66 103 66 13 0 56 -15 95 -34 90 -42 115 -52 202 -83 39 -14 102 -40 141 -59 39 -18 113 -49 165 -68 52 -18 126 -48 164 -66 39 -18 106 -45 150 -61 44 -16 89 -33 100 -38 43 -19 141 -64 157 -72 10 -5 29 -9 42 -9 22 0 25 5 30 42 3 24 8 378 11 787 4 414 10 752 15 762 10 19 -64 16 1450 39 393 5 969 14 1280 20 546 9 2316 30 2785 33 127 1 336 -4 465 -11 129 -7 323 -17 430 -22 488 -24 1088 -56 1530 -81 373 -22 380 -22 480 -4 52 10 124 25 160 35 87 24 230 55 370 80 126 23 262 52 355 77 57 15 85 21 284 57 46 9 90 21 97 27 11 9 14 60 14 254 0 133 -3 257 -6 274 -5 25 -35 58 -132 144 -338 303 -351 316 -363 360 -6 23 -15 47 -19 52 -4 6 -18 46 -30 90 -26 95 -73 239 -93 286 -8 19 -27 75 -42 124 -14 50 -31 100 -36 113 -5 13 -9 31 -9 40 0 16 58 174 114 312 15 36 41 106 58 155 17 50 35 92 40 93 4 2 8 10 8 18 0 14 103 211 151 289 14 22 42 74 63 115 21 41 44 82 51 90 7 8 35 56 61 105 27 50 81 137 121 195 125 182 187 271 273 395 135 194 184 264 207 304 25 41 24 -21 58 3046 25 2285 43 8653 25 8880 -18 221 0 192 -302 487 -145 141 -391 383 -548 537 l-285 280 -715 -2 c-393 0 -762 -2 -820 -4z m864 -414 c100 -12 401 -85 487 -118 145 -55 362 -240 502 -426 124 -165 241 -434 267 -615 10 -71 11 -635 1 -875 l-6 -150 -105 3 c-142 5 -310 40 -520 108 -210 68 -317 120 -515 251 -174 116 -242 171 -458 371 -346 321 -480 498 -650 858 -62 130 -188 468 -214 571 -5 21 -2 22 78 26 223 9 1052 6 1133 -4z m-11049 -126 c-34 -91 -59 -391 -75 -908 -21 -713 -29 -801 -115 -1234 -25 -124 -48 -259 -51 -298 l-7 -73 -31 0 c-51 0 -540 -90 -645 -119 -87 -24 -98 -20 -137 53 -25 45 -27 61 -32 190 -6 204 16 1219 28 1296 43 259 216 559 456 790 141 136 226 185 474 271 74 26 137 48 139 48 2 1 0 -7 -4 -16z m3923 -2048 c58 -27 140 -104 168 -156 28 -54 31 -175 6 -231 -47 -107 -159 -184 -267 -182 -112 1 -215 68 -265 170 -33 67 -35 190 -3 249 29 55 87 108 157 144 73 39 130 41 204 6z m-3998 -1762 c-2 -368 0 -1683 5 -2923 4 -1240 4 -2505 0 -2811 l-7 -557 -82 -6 c-130 -11 -204 -31 -311 -81 -89 -43 -175 -78 -175 -72 0 1 -5 40 -10 87 -18 152 -29 1763 -31 4328 l-2 2514 79 34 c121 53 272 102 402 128 64 14 121 25 126 25 5 1 8 -275 6 -666z m8653 219 c42 -40 41 -34 111 -522 25 -173 50 -333 55 -355 l11 -40 -5 45 c-12 140 -83 661 -101 755 -9 44 -23 93 -31 108 -8 16 -12 31 -9 34 6 7 150 -56 214 -93 23 -14 42 -32 42 -42 0 -9 5 -24 11 -32 8 -12 9 -9 5 12 l-6 27 44 -15 c63 -22 54 23 166 -874 44 -355 90 -712 102 -793 l21 -149 26 5 c14 3 89 30 165 60 153 61 179 61 191 6 8 -36 18 -37 34 -3 6 14 17 24 24 21 14 -4 14 -7 0 -77 -6 -30 -14 -71 -17 -91 -8 -44 -80 -120 -148 -155 -27 -13 -48 -26 -48 -29 0 -5 102 40 129 57 29 18 34 6 21 -43 -17 -62 -53 -88 -184 -138 -64 -24 -119 -48 -122 -52 -2 -4 1 -36 7 -71 6 -35 13 -88 15 -118 3 -66 20 -238 40 -415 8 -71 21 -218 29 -325 19 -256 34 -368 52 -408 16 -33 89 -99 100 -89 3 4 -9 27 -26 53 -37 56 -38 71 -8 110 36 48 117 118 125 108 135 -162 135 -162 130 -229 -4 -46 -13 -67 -54 -126 -83 -120 -82 -118 -50 -89 44 39 127 152 133 183 8 37 18 34 53 -14 29 -41 29 -42 12 -71 -25 -43 -129 -164 -198 -229 -32 -30 -67 -67 -77 -82 -21 -32 -57 -37 -57 -8 0 30 -63 78 -119 90 -28 6 -68 21 -89 34 -62 39 -62 39 -62 24 0 -8 9 -17 20 -20 11 -3 20 -11 20 -19 0 -7 12 -21 28 -31 39 -24 95 -77 88 -84 -18 -18 -172 58 -241 118 -18 16 -51 64 -73 107 -86 165 -113 315 -172 957 -45 496 -47 510 -65 495 -9 -8 -15 -8 -20 0 -8 14 -71 13 -98 -2 -12 -6 -42 -27 -66 -47 l-43 -35 -24 29 c-40 49 -58 127 -51 222 3 46 10 91 16 100 5 10 49 39 98 65 94 51 100 57 33 33 -23 -8 -64 -15 -91 -15 -73 0 -64 23 24 56 39 15 93 38 119 51 42 21 47 27 43 51 -24 159 -88 635 -130 972 -36 293 -61 469 -95 670 -10 63 -24 167 -30 230 -6 63 -13 130 -15 148 -4 30 -2 32 18 26 12 -3 34 -18 50 -32z m-4030 -720 c15 -13 36 -20 62 -20 44 1 172 -40 245 -77 119 -61 239 -164 349 -300 280 -345 390 -604 422 -993 9 -109 9 -158 0 -213 -23 -142 -109 -298 -223 -405 -57 -55 -186 -123 -237 -127 l-30 -2 17 -27 c180 -291 296 -541 344 -737 25 -105 30 -292 9 -396 -34 -171 -135 -389 -297 -640 -112 -173 -189 -326 -204 -405 -6 -30 -11 -87 -12 -126 -2 -118 45 -175 173 -215 93 -29 244 -42 404 -34 165 8 202 15 295 56 l70 32 0 59 c0 37 6 68 16 83 22 33 34 31 34 -4 0 -17 4 -32 8 -35 5 -3 8 14 7 37 -4 90 14 110 53 57 13 -16 31 -30 42 -30 20 0 90 -55 90 -71 0 -4 16 -34 35 -66 19 -32 35 -66 35 -75 0 -21 -29 -86 -50 -112 -12 -16 -9 -15 17 4 59 43 64 137 10 213 l-20 29 40 -21 c22 -11 60 -38 83 -60 l43 -40 -12 -43 c-36 -123 -180 -285 -313 -351 -132 -66 -228 -87 -451 -100 -298 -17 -475 10 -662 98 -107 51 -233 174 -296 290 -31 55 -60 169 -59 225 1 30 -1 80 -5 111 -9 69 5 158 45 280 42 128 93 228 215 424 148 237 187 316 230 468 69 248 -191 853 -438 1018 l-62 42 70 -66 c92 -87 65 -86 -35 1 -104 91 -108 94 -160 123 -25 14 -57 33 -72 43 l-26 17 13 -39 c8 -21 19 -95 26 -165 11 -113 10 -130 -5 -170 -14 -37 -15 -55 -6 -113 5 -38 11 -87 14 -109 2 -22 2 10 -1 71 -3 105 6 164 25 164 20 0 32 -60 42 -208 6 -86 15 -224 20 -307 6 -82 15 -192 22 -244 l12 -93 -27 -20 c-34 -24 -35 -37 -2 -31 19 4 25 0 31 -21 7 -29 -12 -85 -30 -87 -6 -1 -22 -1 -36 0 -22 1 -23 0 -7 -9 19 -12 24 -65 6 -76 -6 -3 -23 2 -37 13 -15 11 -38 23 -52 26 -43 12 -114 72 -137 116 -29 55 -40 126 -53 351 -17 301 -48 584 -85 765 -28 140 -55 325 -55 374 0 6 -4 11 -8 11 -5 0 -7 -12 -5 -27 13 -143 29 -250 54 -382 30 -160 58 -428 84 -819 10 -156 19 -232 30 -252 9 -18 11 -30 5 -30 -25 0 -93 57 -118 99 -23 39 -27 57 -26 116 2 130 -15 481 -26 531 -14 68 -29 227 -22 238 3 5 11 1 19 -9 21 -30 16 -10 -23 83 -31 75 -60 188 -93 360 -10 51 4 66 31 32 10 -12 21 -21 24 -18 8 9 -29 78 -41 78 -35 0 -59 798 -35 1120 6 80 13 151 15 158 3 8 -10 19 -30 28 -19 8 -35 19 -35 25 0 24 62 193 94 257 48 95 104 162 181 217 87 62 151 86 260 94 124 10 162 7 188 -17z m-696 -674 c-3 -7 -5 -2 -5 12 0 14 2 19 5 13 2 -7 2 -19 0 -25z m5659 -917 c-18 -19 -153 -57 -164 -46 -3 3 1 5 9 5 8 0 46 14 84 30 84 35 94 36 71 11z m-2876 -266 c30 -13 49 -24 41 -25 -7 0 20 -27 62 -60 42 -32 88 -76 104 -96 15 -20 36 -44 46 -53 56 -50 77 -75 77 -92 0 -10 -6 -19 -14 -19 -12 0 -14 -13 -12 -58 2 -32 8 -68 15 -79 18 -35 13 -142 -14 -287 -43 -230 -85 -320 -223 -466 -129 -139 -292 -249 -366 -250 -19 0 -19 0 0 23 11 12 26 31 34 41 18 25 7 19 -61 -31 -75 -54 -148 -42 -277 45 -81 56 -135 118 -182 213 -58 114 -73 193 -74 374 0 136 3 160 31 265 36 135 98 297 137 359 26 40 29 42 44 27 10 -10 16 -30 15 -53 l-2 -38 15 33 c8 17 18 32 23 32 4 0 32 -31 60 -70 29 -38 56 -70 60 -70 13 0 60 126 55 147 -4 14 7 29 43 58 85 68 74 67 -34 -2 -28 -18 -55 -33 -58 -33 -4 0 -5 15 -3 33 3 29 10 35 68 64 66 32 119 50 225 76 85 20 103 19 165 -8z m1175 -30 c116 -18 192 -45 280 -97 83 -50 197 -164 232 -231 26 -52 63 -184 63 -225 0 -13 9 -36 19 -51 19 -26 19 -28 -4 -131 -82 -365 -236 -556 -570 -702 -60 -27 -123 -55 -138 -63 -16 -8 -32 -15 -37 -15 -14 0 -20 31 -10 51 15 26 5 24 -44 -11 l-42 -31 -75 31 c-146 59 -291 183 -342 292 -36 78 -66 218 -73 349 -6 98 -3 130 16 219 25 115 59 217 97 295 22 43 108 181 123 195 3 3 10 14 16 24 16 30 31 30 37 -1 5 -21 -12 -65 -69 -185 -86 -181 -108 -238 -96 -250 5 -5 16 18 26 49 23 75 153 343 165 343 9 0 30 -39 45 -83 3 -9 -4 -34 -15 -55 l-20 -37 29 34 29 34 42 -33 c22 -18 41 -39 41 -46 0 -13 14 -16 187 -33 100 -11 207 -42 259 -75 14 -10 35 -38 46 -64 17 -39 20 -58 14 -124 -9 -104 -47 -222 -96 -296 -42 -62 -96 -105 -198 -156 -64 -32 -63 -41 1 -22 94 28 199 130 248 241 70 157 76 336 15 403 -49 55 -186 100 -334 109 l-104 6 -42 42 c-22 23 -48 44 -56 47 -22 8 -4 33 64 87 l59 46 96 -1 c99 -1 197 -21 311 -66 117 -46 161 -86 260 -232 37 -56 76 -108 86 -116 10 -8 0 12 -23 45 -22 33 -57 89 -78 125 -21 36 -47 76 -59 89 -54 60 -200 126 -366 165 -75 18 -206 21 -246 6 -15 -6 -29 -9 -31 -6 -2 2 5 23 17 46 15 30 33 47 63 61 51 23 67 23 182 4z m429 -141 c86 -71 72 -69 -48 7 -52 33 -57 39 -35 39 17 0 47 -17 83 -46z m-1034 -84 c-6 -11 -13 -20 -16 -20 -2 0 0 9 6 20 6 11 13 20 16 20 2 0 0 -9 -6 -20z m1165 -87 c9 -20 13 -38 11 -41 -4 -4 -46 71 -46 83 0 16 22 -10 35 -42z m-3445 -466 c0 -5 -4 -5 -10 -2 -5 3 -10 14 -10 23 0 15 2 15 10 2 5 -8 10 -19 10 -23z m40 -92 c0 -5 -5 -3 -10 5 -5 8 -10 20 -10 25 0 6 5 3 10 -5 5 -8 10 -19 10 -25z m29 -70 c0 -5 -6 1 -14 15 -8 14 -14 30 -14 35 0 6 6 -1 14 -15 8 -14 14 -29 14 -35z m1911 -78 c-11 -30 -28 -61 -37 -69 -19 -15 -18 -15 22 69 16 34 31 60 33 59 1 -2 -7 -28 -18 -59z m-133 -189 c-42 -49 -70 -75 -122 -117 -11 -8 20 26 70 77 49 51 91 92 93 92 2 0 -17 -24 -41 -52z m1419 -45 c-2 -9 -9 -19 -17 -21 -8 -3 -42 -31 -76 -63 -42 -41 -66 -57 -78 -53 -19 8 -22 5 76 77 43 31 80 60 84 66 9 16 14 13 11 -6z m-3150 -114 c-4 -23 -16 -57 -27 -78 -11 -20 -17 -27 -14 -16 3 11 13 46 22 78 19 67 28 75 19 16z m2449 -138 c22 -11 33 -20 25 -20 -8 0 -33 8 -55 18 -22 11 -33 20 -25 20 8 0 33 -8 55 -18z m-2527 -56 c-6 -14 -13 -23 -15 -21 -5 5 15 46 22 46 3 0 -1 -11 -7 -25z m3285 -954 c52 -20 105 -147 162 -383 21 -85 29 -83 11 2 -3 14 -8 39 -12 55 -3 17 -19 78 -35 137 -32 113 -36 193 -10 193 15 0 49 -96 128 -355 37 -123 57 -165 75 -154 6 4 20 7 31 8 14 1 23 10 27 26 6 27 65 54 104 48 19 -3 19 -4 3 -20 -9 -9 -17 -25 -17 -35 0 -14 2 -15 9 -4 5 8 20 16 32 18 13 2 27 9 31 16 4 6 12 13 18 13 5 1 15 2 20 3 6 0 10 8 10 16 0 11 11 15 38 14 36 0 37 0 15 -16 -25 -17 -30 -33 -11 -33 6 0 34 11 63 24 56 27 155 34 155 11 0 -16 -27 -38 -38 -31 -5 3 -8 -5 -8 -16 1 -13 -8 -27 -22 -34 -31 -15 -38 -24 -20 -24 8 0 32 11 52 25 35 24 36 24 36 3 0 -34 -112 -250 -135 -258 -11 -5 -35 -14 -53 -20 -18 -7 -31 -14 -29 -17 2 -2 16 1 31 6 29 12 31 8 15 -37 -11 -33 -9 -32 -161 -73 -79 -21 -88 -26 -88 -47 0 -24 33 -97 48 -106 11 -7 411 93 517 129 44 15 138 50 209 76 140 53 151 52 133 -8 -14 -44 -45 -64 -152 -99 -82 -27 -113 -44 -82 -44 32 0 210 78 251 111 13 11 27 16 29 12 7 -12 -23 -204 -38 -238 -9 -22 -30 -40 -76 -64 -54 -27 -58 -31 -29 -26 99 18 97 18 102 -3 9 -32 -9 -49 -80 -76 -80 -30 -393 -124 -543 -162 l-106 -27 8 -36 c12 -54 66 -196 106 -282 l35 -77 -15 -58 c-13 -53 -17 -59 -38 -56 -13 2 -28 8 -33 12 -5 5 -18 4 -29 -2 -28 -15 -107 -3 -150 22 -20 12 -37 17 -37 12 0 -15 -66 -35 -89 -27 -11 3 -29 20 -39 38 -16 26 -106 259 -118 303 -6 25 -123 -2 -406 -92 -27 -9 -48 -21 -48 -28 0 -7 27 -88 60 -180 60 -166 60 -167 44 -202 -19 -40 -22 -41 -34 -11 -8 20 -9 20 -9 -9 -1 -16 4 -35 11 -42 9 -9 9 -15 0 -24 -10 -10 -21 -4 -52 30 -22 24 -40 47 -40 52 0 6 -4 10 -10 10 -14 0 -13 -27 2 -32 22 -8 -1 -38 -29 -38 -30 0 -99 43 -114 72 -6 10 -15 16 -20 12 -6 -3 -17 2 -24 12 -17 23 -19 15 -5 -22 10 -26 10 -26 -22 -20 -63 12 -80 35 -122 157 -21 63 -40 115 -41 117 -6 7 -159 -33 -310 -82 -276 -88 -272 -89 -258 49 8 73 7 84 -4 69 -7 -10 -13 -21 -13 -26 0 -4 -9 -8 -20 -8 -14 0 -20 7 -20 23 0 34 37 87 60 87 12 0 18 5 15 10 -3 6 -2 10 4 10 6 0 20 18 31 40 20 39 14 54 -10 25 -14 -17 -40 -20 -40 -4 0 21 43 109 53 109 5 0 46 13 91 30 45 16 113 39 152 50 40 11 74 26 77 33 8 23 -16 147 -29 147 -30 0 -173 -35 -349 -85 -260 -74 -561 -153 -612 -161 -39 -6 -42 -5 -58 26 -12 24 -20 29 -28 21 -6 -6 -19 -11 -30 -11 -14 0 -18 6 -15 28 2 19 8 27 21 26 20 -2 20 -3 7 30 -17 47 14 115 74 159 74 54 170 88 478 167 286 73 437 118 403 119 -11 0 -81 -15 -155 -35 -74 -19 -205 -53 -290 -75 -192 -49 -338 -94 -407 -125 -29 -12 -53 -21 -53 -19 0 3 11 28 24 58 20 47 30 56 72 74 63 27 143 50 389 113 262 67 367 99 360 109 -3 5 3 7 14 4 30 -8 33 12 12 89 -31 117 -146 476 -180 561 -17 43 -31 81 -31 86 0 12 71 20 91 10 17 -9 62 -135 134 -379 65 -219 105 -330 119 -330 5 0 -82 284 -157 515 -34 105 -64 196 -65 204 -3 11 7 13 54 7 32 -4 82 -14 112 -22 84 -25 114 -79 177 -317 10 -37 20 -65 23 -62 5 5 -16 91 -49 204 -23 76 -25 156 -5 164 11 4 33 -51 92 -226 90 -271 130 -376 150 -397 12 -12 14 -12 14 1 0 16 39 31 200 75 52 14 116 35 141 46 l46 19 -8 57 c-10 71 -88 354 -124 447 -40 105 -40 107 25 122 60 13 211 10 253 -6z m-1863 -362 c-13 -27 -25 -48 -26 -46 -4 4 23 94 32 109 6 9 9 9 12 -1 2 -7 -6 -35 -18 -62z m3190 -408 c0 -5 -14 -14 -30 -20 -21 -7 -29 -7 -24 0 5 8 33 24 52 28 1 1 2 -3 2 -8z m-2412 -713 c-6 -17 -56 -53 -64 -45 -7 7 44 57 58 57 5 0 8 -5 6 -12z m419 -410 c-3 -7 -5 -2 -5 12 0 14 2 19 5 13 2 -7 2 -19 0 -25z m-572 12 c4 -6 -1 -22 -10 -36 -9 -14 -14 -32 -11 -40 7 -17 -6 -18 -22 -2 -15 15 -15 43 0 68 14 22 33 26 43 10z m4177 -68 c18 -4 16 -7 -12 -18 -18 -8 -33 -14 -35 -14 -4 0 6 53 13 70 4 11 7 8 10 -9 2 -13 13 -26 24 -29z m-3553 -80 c12 -31 17 -52 10 -50 -14 5 -49 95 -48 123 l0 20 9 -20 c4 -11 17 -44 29 -73z m-7564 24 c-11 -55 -17 -106 -21 -178 -3 -44 -12 -100 -20 -126 -20 -57 -83 -153 -137 -207 -37 -38 -97 -148 -97 -179 0 -7 -6 -16 -13 -19 -25 -10 -40 -142 -32 -283 14 -229 8 -516 -14 -739 -29 -296 -51 -609 -51 -735 0 -119 0 -119 -70 -139 -62 -18 -262 -118 -349 -176 -40 -27 -121 -93 -180 -147 l-106 -100 -2 184 c-4 364 -24 1028 -38 1258 -28 449 -19 630 41 836 33 116 64 179 136 275 82 112 172 197 286 273 141 94 239 139 404 186 l146 42 22 -22 c21 -21 40 -19 40 5 0 16 18 23 42 17 12 -3 16 -11 13 -26z m12257 -738 c8 -696 -6 -827 -107 -1067 -59 -141 -109 -214 -229 -339 -110 -114 -222 -201 -370 -286 -150 -87 -186 -103 -349 -158 l-152 -52 -202 -4 c-258 -5 -768 13 -943 34 -74 9 -137 18 -138 19 -2 2 28 99 68 217 55 164 95 262 175 423 252 512 563 880 1043 1233 298 219 864 437 1148 441 l52 1 4 -462z m-9051 -565 c13 -16 12 -17 -3 -4 -10 7 -18 15 -18 17 0 8 8 3 21 -13z m80 -60 c13 -16 12 -17 -3 -4 -10 7 -18 15 -18 17 0 8 8 3 21 -13z m-2736 -1864 c368 -18 1213 -23 1687 -10 615 17 4326 17 5538 0 1006 -14 3201 -13 3395 2 66 5 174 12 241 15 l121 6 6 -23 c24 -88 16 -257 -19 -410 l-18 -77 -435 -7 c-1126 -20 -3296 -5 -3961 26 -559 27 -3833 11 -4265 -21 -140 -10 -347 -39 -460 -64 -68 -15 -183 -33 -300 -46 l-80 -9 95 4 c52 2 118 8 145 14 28 5 106 19 175 31 69 12 150 26 180 31 76 13 328 23 374 15 33 -6 40 -13 62 -61 14 -29 31 -94 39 -143 15 -89 44 -174 64 -186 6 -4 161 -1 345 5 368 14 550 7 831 -32 185 -26 468 -27 695 -4 225 23 2225 43 2660 27 168 -7 339 -16 380 -22 493 -64 1229 -91 1665 -60 230 15 485 17 1200 6 l510 -8 3 -87 c8 -210 80 -393 251 -636 163 -232 191 -277 191 -304 0 -28 -39 -90 -76 -123 -37 -32 -189 -97 -259 -109 -92 -17 -340 -17 -990 -1 -294 7 -1132 14 -1880 16 -742 1 -1713 8 -2156 15 -824 13 -1461 6 -2004 -20 -345 -17 -1750 -18 -1767 -1 -10 10 -13 117 -14 515 l-1 502 -27 80 c-49 144 -99 202 -259 305 -96 62 -146 101 -141 110 7 13 -15 27 -81 52 -38 15 -94 30 -123 33 -30 4 -66 13 -80 21 -20 10 -64 13 -167 12 l-140 -2 145 -6 c80 -3 134 -7 121 -8 -24 -2 -24 -2 -5 -16 10 -8 30 -13 44 -10 l25 4 -24 -10 c-25 -11 -92 -5 -276 26 -75 13 -192 15 -695 12 l-605 -3 -59 -24 c-103 -41 -178 -92 -264 -178 -72 -71 -90 -97 -132 -185 -26 -57 -54 -129 -61 -160 -13 -63 -9 -103 38 -348 23 -119 26 -159 26 -345 0 -115 -4 -254 -8 -309 l-7 -99 -57 6 c-81 9 -161 39 -286 109 -369 206 -504 345 -610 633 -124 334 -121 633 7 883 61 119 87 156 187 269 183 208 421 336 702 381 124 20 256 20 644 1z m337 -2131 c-3 -862 6 -1346 28 -1406 l12 -33 23 21 c13 12 29 19 35 15 6 -4 26 3 46 14 19 12 58 23 87 26 29 3 65 7 80 9 15 1 33 9 40 16 10 10 9 11 -2 5 -9 -5 -12 -4 -7 3 7 12 68 12 63 0 -1 -3 -21 -21 -43 -40 -23 -18 -86 -71 -140 -117 -101 -85 -417 -301 -441 -301 -27 0 -94 41 -103 63 -6 12 -15 49 -21 82 -12 73 -32 2010 -23 2293 l6 192 182 0 181 0 -3 -842z m1229 821 c5 -8 13 -30 19 -49 11 -41 36 -776 33 -1005 -1 -88 -3 -457 -5 -820 -2 -511 -6 -674 -17 -722 -7 -35 -16 -63 -20 -63 -32 0 -246 131 -309 190 l-33 30 4 332 c2 183 10 502 16 708 6 206 16 524 21 705 10 335 26 496 67 635 8 30 17 61 19 69 6 19 192 10 205 -10z" fill="#f4ecff"/>
<path d="M15377 18326 c-109 -29 -130 -80 -79 -183 42 -81 98 -151 288 -355 243 -260 367 -363 543 -452 73 -36 104 -45 188 -56 98 -13 102 -12 137 9 43 27 66 67 66 113 -1 87 -76 349 -136 472 -79 159 -229 304 -391 377 -158 71 -484 110 -616 75z" fill="#f4ecff"/>
<path d="M4406 18497 c-27 -4 -61 -16 -75 -26 -38 -26 -211 -112 -211 -105 0 4 -33 -27 -72 -69 -72 -74 -128 -136 -128 -143 0 -4 -46 -75 -59 -90 -12 -15 -51 -95 -51 -106 0 -5 -8 -27 -19 -51 -48 -110 -71 -177 -81 -237 -12 -80 -12 -83 0 -75 6 4 10 -8 10 -28 0 -26 5 -36 20 -40 11 -3 20 -1 20 4 0 5 7 9 15 9 8 0 15 3 15 8 0 4 14 15 30 24 26 15 30 23 30 59 0 23 3 39 7 36 4 -4 18 4 32 17 37 34 227 134 269 142 135 24 242 70 262 112 14 31 50 221 50 268 0 17 6 50 14 75 16 49 27 186 14 166 -6 -8 -8 -6 -7 8 3 37 -1 47 -15 42 -8 -3 -16 -3 -18 2 -2 4 -25 3 -52 -2z" fill="#f4ecff"/>
<path d="M4295 15380 c-133 -28 -217 -60 -254 -97 l-34 -34 6 -92 c40 -574 57 -1212 45 -1692 -5 -225 -7 -700 -4 -1055 3 -355 8 -1115 11 -1689 4 -856 8 -1059 20 -1135 8 -50 15 -95 15 -101 0 -5 5 -3 10 5 9 13 12 13 21 -3 10 -18 12 -18 30 -1 10 9 19 13 19 8 0 -5 5 -2 10 6 5 8 7 29 4 46 -5 27 -1 33 35 58 22 15 54 35 72 45 22 11 37 31 51 66 11 28 24 59 29 70 4 11 11 56 14 100 3 44 9 116 14 160 4 44 4 118 0 165 -21 233 -28 290 -39 310 -6 11 -10 46 -8 78 l3 57 21 -85 c14 -57 25 -85 35 -85 21 0 24 366 3 448 -8 33 -12 62 -9 66 2 5 0 23 -6 42 -6 19 -17 85 -24 148 -8 62 -19 118 -24 125 -5 6 -10 78 -10 160 -1 122 3 165 21 239 13 50 25 82 26 71 6 -29 19 -38 26 -18 11 37 26 342 26 526 0 184 0 188 21 188 23 0 24 -5 -2 315 -6 72 -14 234 -18 360 -5 137 -9 196 -11 145 -3 -82 -4 -80 -11 50 -11 189 -25 352 -34 373 -8 20 14 342 26 372 5 13 8 -12 9 -65 3 -149 18 -145 19 5 1 185 18 575 36 855 24 364 20 450 -24 492 -24 22 -57 21 -166 -2z" fill="#f4ecff"/>
<path d="M13521 14864 c0 -11 3 -14 6 -6 3 7 2 16 -1 19 -3 4 -6 -2 -5 -13z" fill="#f4ecff"/>
<path d="M13532 14820 c0 -14 2 -19 5 -12 2 6 2 18 0 25 -3 6 -5 1 -5 -13z" fill="#f4ecff"/>
<path d="M13542 14760 c0 -14 2 -19 5 -12 2 6 2 18 0 25 -3 6 -5 1 -5 -13z" fill="#f4ecff"/>
<path d="M13382 14100 c-1 -19 3 -53 7 -75 l9 -40 0 45 c0 25 -4 59 -8 75 l-8 30 0 -35z" fill="#f4ecff"/>
<path d="M14118 13183 c7 -3 16 -2 19 1 4 3 -2 6 -13 5 -11 0 -14 -3 -6 -6z" fill="#f4ecff"/>
<path d="M14055 13164 c-46 -17 -75 -41 -35 -29 48 14 68 24 75 34 3 6 5 11 3 10 -2 0 -21 -7 -43 -15z" fill="#f4ecff"/>
<path d="M14200 13135 c-19 -23 -7 -39 13 -17 10 11 14 23 9 26 -5 3 -15 -1 -22 -9z" fill="#f4ecff"/>
<path d="M13960 13115 c-17 -10 -20 -14 -9 -15 9 0 22 7 29 15 15 18 12 18 -20 0z" fill="#f4ecff"/>
<path d="M13885 13079 c-11 -17 1 -21 15 -4 8 9 8 15 2 15 -6 0 -14 -5 -17 -11z" fill="#f4ecff"/>
<path d="M9090 13936 c14 -7 50 -19 80 -26 67 -15 120 -36 120 -49 0 -13 -31 -23 -44 -13 -6 5 -42 22 -81 37 -38 16 -74 32 -80 35 -5 4 -24 10 -42 13 -42 8 -71 -16 -111 -91 -36 -67 -41 -90 -13 -53 l18 24 2 -29 c1 -16 1 -49 0 -74 -10 -398 5 -1097 24 -1116 8 -8 46 14 90 51 34 29 85 50 142 57 12 2 44 -14 73 -36 51 -37 53 -38 78 -21 25 16 32 16 121 0 147 -26 203 -13 282 69 42 43 44 47 43 103 -1 32 -5 91 -8 131 -7 79 2 92 29 40 l16 -33 -6 60 c-6 63 -21 117 -22 82 -1 -29 -18 -11 -36 41 -27 76 -43 132 -39 132 2 0 17 -26 33 -57 36 -70 39 -64 7 19 -71 189 -224 436 -335 540 -85 81 -150 120 -254 153 -86 28 -128 33 -87 11z" fill="#f4ecff"/>
<path d="M9732 12270 c12 -16 26 -30 32 -30 5 0 -3 14 -19 30 -16 17 -30 30 -32 30 -2 0 6 -13 19 -30z" fill="#f4ecff"/>
<path d="M8901 12264 c0 -11 3 -14 6 -6 3 7 2 16 -1 19 -3 4 -6 -2 -5 -13z" fill="#f4ecff"/>
<path d="M8915 12180 c14 -87 47 -245 52 -250 7 -7 -3 60 -28 185 -21 101 -37 147 -24 65z" fill="#f4ecff"/>
<path d="M9023 11535 c0 -38 2 -53 4 -32 2 20 2 52 0 70 -2 17 -4 1 -4 -38z" fill="#f4ecff"/>
<path d="M9033 11370 c-1 -47 3 -143 6 -215 l8 -130 0 130 c1 72 -2 168 -6 215 l-8 85 0 -85z" fill="#f4ecff"/>
<path d="M8982 10942 c-9 -7 -8 -13 8 -27 16 -14 23 -15 34 -6 30 25 -8 54 -42 33z" fill="#f4ecff"/>
<path d="M9706 10873 c-6 -14 -5 -15 5 -6 7 7 10 15 7 18 -3 3 -9 -2 -12 -12z" fill="#f4ecff"/>
<path d="M9654 10783 c-15 -27 -61 -100 -103 -163 -86 -133 -177 -300 -162 -300 5 0 13 10 17 23 7 21 110 197 186 317 48 77 100 170 95 170 -3 0 -18 -21 -33 -47z" fill="#f4ecff"/>
<path d="M9347 10256 c-30 -67 -30 -96 -2 -43 14 27 24 56 22 65 -2 11 -9 4 -20 -22z" fill="#f4ecff"/>
<path d="M10677 9868 c-6 -44 -2 -46 17 -10 14 27 13 42 -5 42 -3 0 -9 -15 -12 -32z" fill="#f4ecff"/>
<path d="M10570 9676 c0 -16 6 -26 15 -26 8 0 15 5 15 11 0 6 -7 17 -15 25 -13 14 -15 13 -15 -10z" fill="#f4ecff"/>
<path d="M10800 12063 c0 -43 5 -41 13 5 4 18 2 32 -3 32 -6 0 -10 -16 -10 -37z" fill="#f4ecff"/>
<path d="M11025 12064 c-11 -9 -41 -26 -66 -39 -36 -19 -52 -36 -76 -82 -44 -83 -52 -122 -54 -263 -1 -106 2 -133 20 -180 35 -90 30 -89 110 -26 38 31 86 77 105 102 66 86 106 236 106 395 0 77 -2 90 -19 99 -29 15 -103 12 -126 -6z" fill="#f4ecff"/>
<path d="M11319 11393 c-37 -54 -90 -106 -164 -163 -27 -21 -68 -54 -90 -75 -22 -20 1 -6 50 31 114 85 148 117 194 179 44 59 54 75 47 75 -3 0 -20 -21 -37 -47z" fill="#f4ecff"/>
<path d="M10735 11135 c22 -14 57 -30 77 -35 43 -12 160 -3 183 14 12 8 -12 11 -97 11 -88 0 -121 4 -147 18 -51 26 -62 20 -16 -8z" fill="#f4ecff"/>
<path d="M12130 12076 c-26 -43 -66 -180 -80 -272 -11 -76 -12 -246 -2 -282 4 -13 7 46 7 130 1 154 6 190 51 314 14 40 16 41 59 40 25 -1 45 -2 45 -4 0 -2 -16 -30 -35 -63 -51 -87 -67 -154 -68 -279 0 -97 2 -113 26 -162 15 -30 38 -65 52 -78 23 -22 27 -22 67 -11 222 66 357 251 346 476 l-3 70 -47 31 c-67 45 -171 69 -292 67 -55 -1 -103 0 -107 3 -5 3 -4 16 1 29 13 35 5 31 -20 -9z" fill="#f4ecff"/>
<path d="M11781 11854 c0 -11 3 -14 6 -6 3 7 2 16 -1 19 -3 4 -6 -2 -5 -13z" fill="#f4ecff"/>
<path d="M12090 11407 c0 -2 11 -16 24 -31 16 -20 30 -27 47 -24 23 4 23 5 4 13 -11 4 -32 17 -47 27 -16 11 -28 18 -28 15z" fill="#f4ecff"/>
<path d="M12025 11150 c3 -5 8 -10 11 -10 2 0 4 5 4 10 0 6 -5 10 -11 10 -5 0 -7 -4 -4 -10z" fill="#f4ecff"/>
<path d="M12054 11131 c9 -15 94 -51 118 -50 15 0 8 5 -20 14 -23 7 -54 20 -67 29 -27 18 -39 21 -31 7z" fill="#f4ecff"/>
<path d="M12394 11124 c-18 -14 -18 -15 4 -4 12 6 22 13 22 15 0 8 -5 6 -26 -11z" fill="#f4ecff"/>
<path d="M12670 9957 c0 -3 12 -36 26 -73 14 -38 37 -111 50 -163 23 -93 34 -120 34 -88 0 50 -81 310 -101 322 -5 4 -9 4 -9 2z" fill="#f4ecff"/>
<path d="M13623 9533 c9 -2 23 -2 30 0 6 3 -1 5 -18 5 -16 0 -22 -2 -12 -5z" fill="#f4ecff"/>
<path d="M13295 9504 c-9 -9 -13 -19 -10 -22 3 -3 15 4 28 16 12 12 16 22 10 22 -6 0 -19 -7 -28 -16z" fill="#f4ecff"/>
<path d="M12802 9480 c0 -14 2 -19 5 -12 2 6 2 18 0 25 -3 6 -5 1 -5 -13z" fill="#f4ecff"/>
<path d="M12141 9424 c0 -11 3 -14 6 -6 3 7 2 16 -1 19 -3 4 -6 -2 -5 -13z" fill="#f4ecff"/>
<path d="M13468 9163 c7 -3 16 -2 19 1 4 3 -2 6 -13 5 -11 0 -14 -3 -6 -6z" fill="#f4ecff"/>
<path d="M13875 8950 c-3 -5 -2 -10 4 -10 5 0 13 5 16 10 3 6 2 10 -4 10 -5 0 -13 -4 -16 -10z" fill="#f4ecff"/>
<path d="M12773 8900 c-35 -7 -96 -26 -320 -95 -9 -3 -9 -14 3 -47 17 -52 63 -129 64 -108 0 11 23 21 83 33 98 22 242 64 278 82 29 15 35 55 17 113 -9 29 -13 32 -46 31 -20 -1 -56 -5 -79 -9z m117 -110 c-8 -5 -22 -10 -30 -10 -13 0 -13 1 0 10 8 5 22 10 30 10 13 0 13 -1 0 -10z" fill="#f4ecff"/>
<path d="M12442 8840 c0 -14 2 -19 5 -12 2 6 2 18 0 25 -3 6 -5 1 -5 -13z" fill="#f4ecff"/>
<path d="M10966 8564 c-3 -9 -6 -23 -6 -32 1 -15 3 -14 15 2 17 22 20 46 6 46 -5 0 -12 -7 -15 -16z" fill="#f4ecff"/>
<path d="M16260 6942 c-131 -53 -217 -105 -420 -256 -122 -90 -204 -160 -270 -230 -52 -55 -168 -174 -257 -264 -90 -90 -165 -173 -167 -185 -10 -49 -13 -166 -4 -182 38 -67 359 -81 587 -24 142 35 298 127 447 263 100 92 186 196 213 257 26 59 74 279 102 467 27 182 27 182 -72 188 -57 4 -75 0 -159 -34z" fill="#f4ecff"/>
<path d="M12130 3420 c-273 -12 -373 -34 -386 -87 -11 -43 10 -185 35 -236 20 -41 27 -47 69 -56 121 -25 323 -36 717 -36 444 0 475 3 555 57 41 28 68 97 77 202 7 85 8 84 -87 102 -293 56 -565 70 -980 54z" fill="#f4ecff"/>
<path d="M8205 3410 c-60 -4 -121 -10 -135 -15 -71 -22 -94 -90 -88 -272 3 -105 5 -116 25 -133 35 -28 162 -34 471 -21 417 18 496 30 533 82 46 65 63 204 33 278 -28 71 -38 74 -314 82 -284 9 -373 9 -525 -1z" fill="#f4ecff"/>
<path d="M15045 3348 c-55 -5 -101 -13 -103 -19 -2 -5 -10 -9 -18 -9 -23 0 -17 -54 9 -78 13 -12 27 -19 31 -15 4 4 4 -1 0 -10 -8 -21 17 -43 59 -51 16 -3 32 -16 38 -30 6 -13 22 -27 35 -30 13 -4 24 -11 24 -16 0 -6 20 -19 45 -31 36 -17 55 -20 93 -14 26 3 56 13 68 20 25 16 46 85 48 159 1 49 -2 59 -29 86 -48 48 -109 56 -300 38z" fill="#f4ecff"/>
<path d="M17497 17995 c3 -49 7 -92 9 -94 9 -10 3 155 -6 169 -6 10 -7 -17 -3 -75z" fill="#f4ecff"/>
<path d="M17504 16895 c0 -60 1 -84 3 -52 2 32 2 81 0 110 -2 29 -3 3 -3 -58z" fill="#f4ecff"/>
<path d="M17504 15960 c0 -124 2 -174 3 -112 2 61 2 163 0 225 -1 61 -3 11 -3 -113z" fill="#f4ecff"/>
<path d="M17500 14388 c0 -575 3 -848 10 -848 14 0 13 1659 0 1680 -6 9 -10 -311 -10 -832z" fill="#f4ecff"/>
</g>
</svg>